<svg width="1012" height="320" viewBox="0 0 1012 320" fill="none" xmlns="http://www.w3.org/2000/svg">
<path d="M361.585 171.083C361.585 174.178 361.114 177.005 360.172 179.562C359.297 182.051 357.682 184.205 355.327 186.022C353.039 187.771 349.842 189.151 345.738 190.16C341.7 191.17 336.552 191.674 330.294 191.674C324.036 191.674 318.854 191.17 314.75 190.16C310.645 189.151 307.415 187.771 305.06 186.022C302.772 184.205 301.157 182.051 300.214 179.562C299.34 177.005 298.902 174.178 298.902 171.083V136.663C298.902 133.567 299.34 130.775 300.214 128.285C301.157 125.728 302.772 123.541 305.06 121.724C307.415 119.907 310.645 118.494 314.75 117.485C318.854 116.475 324.036 115.971 330.294 115.971C336.552 115.971 341.7 116.475 345.738 117.485C349.842 118.494 353.039 119.907 355.327 121.724C357.682 123.541 359.297 125.728 360.172 128.285C361.114 130.775 361.585 133.567 361.585 136.663V171.083ZM321.815 167.449C321.815 168.795 322.32 169.939 323.329 170.881C324.339 171.756 326.66 172.193 330.294 172.193C333.928 172.193 336.249 171.756 337.259 170.881C338.268 169.939 338.773 168.795 338.773 167.449V140.297C338.773 139.018 338.268 137.941 337.259 137.067C336.249 136.125 333.928 135.653 330.294 135.653C326.66 135.653 324.339 136.125 323.329 137.067C322.32 137.941 321.815 139.018 321.815 140.297V167.449ZM437.017 190.16H398.256C396.978 190.16 396.036 189.891 395.43 189.353C394.892 188.747 394.623 187.805 394.623 186.526V121.118C394.623 119.84 394.892 118.931 395.43 118.393C396.036 117.787 396.978 117.485 398.256 117.485H430.456C437.05 117.485 441.929 118.763 445.092 121.32C448.254 123.81 449.836 127.679 449.836 132.928V137.773C449.836 140.599 449.331 142.921 448.322 144.738C447.38 146.488 445.899 147.8 443.88 148.675C448.187 149.078 451.383 150.559 453.47 153.116C455.556 155.673 456.599 159.408 456.599 164.32V173.606C456.599 179.259 454.984 183.431 451.754 186.123C448.591 188.814 443.679 190.16 437.017 190.16ZM417.334 134.644V145.545H425.913C427.192 145.545 428.134 145.209 428.74 144.536C429.413 143.863 429.749 142.854 429.749 141.508V138.682C429.749 137.336 429.413 136.326 428.74 135.653C428.134 134.981 427.192 134.644 425.913 134.644H417.334ZM417.334 161.09V173.001H430.456C431.734 173.001 432.676 172.664 433.282 171.991C433.955 171.318 434.291 170.309 434.291 168.963V165.027C434.291 163.681 433.955 162.705 433.282 162.099C432.676 161.426 431.734 161.09 430.456 161.09H417.334ZM543.972 171.083C543.972 174.178 543.534 177.005 542.66 179.562C541.785 182.051 540.237 184.205 538.016 186.022C535.863 187.771 532.869 189.151 529.033 190.16C525.197 191.17 520.319 191.674 514.397 191.674C508.542 191.674 503.697 191.17 499.862 190.16C496.093 189.151 493.099 187.771 490.878 186.022C488.725 184.205 487.211 182.051 486.336 179.562C485.528 177.005 485.125 174.178 485.125 171.083V154.731C485.125 153.452 485.394 152.544 485.932 152.005C486.538 151.4 487.48 151.097 488.759 151.097H503.395C504.673 151.097 505.582 151.4 506.12 152.005C506.726 152.544 507.028 153.452 507.028 154.731V167.045C507.028 168.391 507.432 169.535 508.24 170.477C509.114 171.352 511.1 171.789 514.195 171.789C517.089 171.789 518.905 171.352 519.646 170.477C520.453 169.535 520.857 168.391 520.857 167.045V121.118C520.857 119.84 521.126 118.931 521.664 118.393C522.27 117.787 523.212 117.485 524.491 117.485H540.338C541.617 117.485 542.525 117.787 543.063 118.393C543.669 118.931 543.972 119.84 543.972 121.118V171.083ZM628.101 190.16H581.266C579.988 190.16 579.045 189.891 578.44 189.353C577.901 188.747 577.632 187.805 577.632 186.526V121.118C577.632 119.84 577.901 118.931 578.44 118.393C579.045 117.787 579.988 117.485 581.266 117.485H628.101C629.38 117.485 630.288 117.787 630.827 118.393C631.432 118.931 631.735 119.84 631.735 121.118V132.928C631.735 134.207 631.432 135.149 630.827 135.754C630.288 136.293 629.38 136.562 628.101 136.562H600.242V144.334H619.925C621.204 144.334 622.112 144.637 622.651 145.243C623.256 145.781 623.559 146.689 623.559 147.968V158.768C623.559 160.047 623.256 160.989 622.651 161.595C622.112 162.133 621.204 162.402 619.925 162.402H600.242V171.083H628.101C629.38 171.083 630.288 171.386 630.827 171.991C631.432 172.53 631.735 173.438 631.735 174.717V186.526C631.735 187.805 631.432 188.747 630.827 189.353C630.288 189.891 629.38 190.16 628.101 190.16ZM711.72 190.16H687.091C678.68 190.16 672.421 188.478 668.317 185.113C664.279 181.749 662.26 176.567 662.26 169.569V138.177C662.26 131.179 664.279 125.997 668.317 122.632C672.421 119.201 678.68 117.485 687.091 117.485H711.72C712.999 117.485 713.907 117.787 714.445 118.393C715.051 118.931 715.354 119.84 715.354 121.118V133.332C715.354 134.61 715.051 135.553 714.445 136.158C713.907 136.697 712.999 136.966 711.72 136.966H691.432C689.345 136.966 687.798 137.403 686.788 138.278C685.779 139.085 685.274 140.33 685.274 142.013V166.036C685.274 167.718 685.779 168.963 686.788 169.771C687.798 170.511 689.345 170.881 691.432 170.881H711.72C712.999 170.881 713.907 171.184 714.445 171.789C715.051 172.328 715.354 173.236 715.354 174.515V186.526C715.354 187.805 715.051 188.747 714.445 189.353C713.907 189.891 712.999 190.16 711.72 190.16ZM781.259 190.16H764.907C763.629 190.16 762.687 189.891 762.081 189.353C761.543 188.747 761.274 187.805 761.274 186.526V136.966H746.436C745.157 136.966 744.215 136.697 743.61 136.158C743.071 135.553 742.802 134.61 742.802 133.332V121.118C742.802 119.84 743.071 118.931 743.61 118.393C744.215 117.787 745.157 117.485 746.436 117.485H799.731C801.01 117.485 801.918 117.787 802.457 118.393C803.062 118.931 803.365 119.84 803.365 121.118V133.332C803.365 134.61 803.062 135.553 802.457 136.158C801.918 136.697 801.01 136.966 799.731 136.966H784.893V186.526C784.893 187.805 784.59 188.747 783.985 189.353C783.446 189.891 782.538 190.16 781.259 190.16ZM835.388 190.16C834.109 190.16 833.167 189.891 832.561 189.353C832.023 188.747 831.754 187.805 831.754 186.526V174.515C831.754 173.236 832.023 172.328 832.561 171.789C833.167 171.184 834.109 170.881 835.388 170.881H845.381V136.966H835.388C834.109 136.966 833.167 136.697 832.561 136.158C832.023 135.553 831.754 134.61 831.754 133.332V121.118C831.754 119.84 832.023 118.931 832.561 118.393C833.167 117.787 834.109 117.485 835.388 117.485H878.387C879.666 117.485 880.574 117.787 881.113 118.393C881.718 118.931 882.021 119.84 882.021 121.118V133.332C882.021 134.61 881.718 135.553 881.113 136.158C880.574 136.697 879.666 136.966 878.387 136.966H868.596V170.881H878.387C879.666 170.881 880.574 171.184 881.113 171.789C881.718 172.328 882.021 173.236 882.021 174.515V186.526C882.021 187.805 881.718 188.747 881.113 189.353C880.574 189.891 879.666 190.16 878.387 190.16H835.388ZM957.671 190.16H931.427C930.149 190.16 929.072 189.925 928.197 189.454C927.39 188.983 926.75 188.108 926.279 186.829L916.387 162.099C915.782 160.619 915.277 159.34 914.873 158.264C914.47 157.12 914.133 156.043 913.864 155.034C913.595 154.024 913.393 152.981 913.258 151.905C913.191 150.761 913.157 149.381 913.157 147.766V121.118C913.157 119.84 913.427 118.931 913.965 118.393C914.571 117.787 915.513 117.485 916.791 117.485H932.84C934.119 117.485 935.095 117.787 935.768 118.393C936.441 118.931 936.777 119.84 936.777 121.118V148.977C936.777 149.65 936.844 150.323 936.979 150.996C937.113 151.669 937.315 152.376 937.584 153.116L942.329 167.247C942.53 167.92 942.766 168.391 943.035 168.66C943.304 168.862 943.708 168.963 944.246 168.963H945.357C945.895 168.963 946.299 168.862 946.568 168.66C946.837 168.391 947.073 167.92 947.275 167.247L952.019 153.015C952.288 152.275 952.49 151.568 952.624 150.895C952.759 150.222 952.826 149.549 952.826 148.876V121.118C952.826 119.84 953.095 118.931 953.634 118.393C954.239 117.787 955.181 117.485 956.46 117.485H972.307C973.586 117.485 974.494 117.787 975.033 118.393C975.638 118.931 975.941 119.84 975.941 121.118V147.766C975.941 149.381 975.874 150.761 975.739 151.905C975.672 152.981 975.504 154.024 975.234 155.034C974.965 156.043 974.629 157.12 974.225 158.264C973.821 159.34 973.317 160.619 972.711 162.099L962.819 186.829C962.348 188.108 961.675 188.983 960.8 189.454C959.993 189.925 958.95 190.16 957.671 190.16Z" fill="white"/>
<path d="M88.0864 123.727L25 160.177V217.111C25 226.123 29.8066 234.452 37.6103 238.96L88.0864 268.124V196.626V123.727Z" stroke="white" stroke-width="18.9259"/>
<path d="M201.649 238.958C209.452 234.449 214.259 226.121 214.259 217.108V160.174L151.172 196.624L125.941 211.202C122.036 213.458 117.223 213.458 113.317 211.202L88.0859 196.624V268.122L107.005 279.053C114.816 283.566 124.442 283.566 132.253 279.053L181.502 250.598L201.649 238.958Z" stroke="white" stroke-width="18.9259"/>
<path d="M214.258 160.171V103.236C214.258 94.2239 209.452 85.8955 201.648 81.3867L151.172 52.2227V123.721V196.62L214.258 160.171Z" stroke="white" stroke-width="18.9259"/>
<path d="M37.6103 81.388C29.8066 85.8967 25 94.2251 25 103.238V160.172L88.0864 123.722L113.317 109.144C117.223 106.887 122.036 106.887 125.942 109.144L151.173 123.722V52.224L132.254 41.293C124.443 36.7799 114.817 36.7799 107.005 41.293L57.7564 69.748L37.6103 81.388Z" stroke="white" stroke-width="18.9259"/>
</svg>
