<svg width="1012" height="320" viewBox="0 0 1012 320" fill="none" xmlns="http://www.w3.org/2000/svg">
<path d="M361.584 171.083C361.584 174.178 361.113 177.005 360.171 179.562C359.296 182.051 357.681 184.205 355.326 186.022C353.038 187.771 349.841 189.151 345.737 190.16C341.699 191.17 336.551 191.674 330.293 191.674C324.035 191.674 318.853 191.17 314.749 190.16C310.644 189.151 307.414 187.771 305.059 186.022C302.771 184.205 301.156 182.051 300.213 179.562C299.339 177.005 298.901 174.178 298.901 171.083V136.663C298.901 133.567 299.339 130.775 300.213 128.285C301.156 125.728 302.771 123.541 305.059 121.724C307.414 119.907 310.644 118.494 314.749 117.485C318.853 116.475 324.035 115.971 330.293 115.971C336.551 115.971 341.699 116.475 345.737 117.485C349.841 118.494 353.038 119.907 355.326 121.724C357.681 123.541 359.296 125.728 360.171 128.285C361.113 130.775 361.584 133.567 361.584 136.663V171.083ZM321.814 167.449C321.814 168.795 322.319 169.939 323.328 170.881C324.338 171.756 326.659 172.193 330.293 172.193C333.927 172.193 336.248 171.756 337.258 170.881C338.267 169.939 338.772 168.795 338.772 167.449V140.297C338.772 139.018 338.267 137.941 337.258 137.067C336.248 136.125 333.927 135.653 330.293 135.653C326.659 135.653 324.338 136.125 323.328 137.067C322.319 137.941 321.814 139.018 321.814 140.297V167.449ZM437.016 190.16H398.255C396.977 190.16 396.035 189.891 395.429 189.353C394.891 188.747 394.622 187.805 394.622 186.526V121.118C394.622 119.84 394.891 118.931 395.429 118.393C396.035 117.787 396.977 117.485 398.255 117.485H430.455C437.049 117.485 441.928 118.763 445.091 121.32C448.253 123.81 449.835 127.679 449.835 132.928V137.773C449.835 140.599 449.33 142.921 448.321 144.738C447.379 146.488 445.898 147.8 443.879 148.675C448.186 149.078 451.382 150.559 453.469 153.116C455.555 155.673 456.598 159.408 456.598 164.32V173.606C456.598 179.259 454.983 183.431 451.753 186.123C448.59 188.814 443.678 190.16 437.016 190.16ZM417.333 134.644V145.545H425.912C427.191 145.545 428.133 145.209 428.739 144.536C429.412 143.863 429.748 142.854 429.748 141.508V138.682C429.748 137.336 429.412 136.326 428.739 135.653C428.133 134.981 427.191 134.644 425.912 134.644H417.333ZM417.333 161.09V173.001H430.455C431.733 173.001 432.675 172.664 433.281 171.991C433.954 171.318 434.29 170.309 434.29 168.963V165.027C434.29 163.681 433.954 162.705 433.281 162.099C432.675 161.426 431.733 161.09 430.455 161.09H417.333ZM543.971 171.083C543.971 174.178 543.533 177.005 542.659 179.562C541.784 182.051 540.236 184.205 538.015 186.022C535.862 187.771 532.868 189.151 529.032 190.16C525.196 191.17 520.318 191.674 514.396 191.674C508.541 191.674 503.696 191.17 499.861 190.16C496.092 189.151 493.098 187.771 490.877 186.022C488.724 184.205 487.21 182.051 486.335 179.562C485.527 177.005 485.124 174.178 485.124 171.083V154.731C485.124 153.452 485.393 152.544 485.931 152.005C486.537 151.4 487.479 151.097 488.758 151.097H503.394C504.672 151.097 505.581 151.4 506.119 152.005C506.725 152.544 507.027 153.452 507.027 154.731V167.045C507.027 168.391 507.431 169.535 508.239 170.477C509.113 171.352 511.099 171.789 514.194 171.789C517.088 171.789 518.904 171.352 519.645 170.477C520.452 169.535 520.856 168.391 520.856 167.045V121.118C520.856 119.84 521.125 118.931 521.663 118.393C522.269 117.787 523.211 117.485 524.49 117.485H540.337C541.616 117.485 542.524 117.787 543.062 118.393C543.668 118.931 543.971 119.84 543.971 121.118V171.083ZM628.1 190.16H581.265C579.987 190.16 579.044 189.891 578.439 189.353C577.9 188.747 577.631 187.805 577.631 186.526V121.118C577.631 119.84 577.9 118.931 578.439 118.393C579.044 117.787 579.987 117.485 581.265 117.485H628.1C629.379 117.485 630.287 117.787 630.826 118.393C631.431 118.931 631.734 119.84 631.734 121.118V132.928C631.734 134.207 631.431 135.149 630.826 135.754C630.287 136.293 629.379 136.562 628.1 136.562H600.241V144.334H619.924C621.203 144.334 622.111 144.637 622.65 145.243C623.255 145.781 623.558 146.689 623.558 147.968V158.768C623.558 160.047 623.255 160.989 622.65 161.595C622.111 162.133 621.203 162.402 619.924 162.402H600.241V171.083H628.1C629.379 171.083 630.287 171.386 630.826 171.991C631.431 172.53 631.734 173.438 631.734 174.717V186.526C631.734 187.805 631.431 188.747 630.826 189.353C630.287 189.891 629.379 190.16 628.1 190.16ZM711.719 190.16H687.09C678.679 190.16 672.42 188.478 668.316 185.113C664.278 181.749 662.259 176.567 662.259 169.569V138.177C662.259 131.179 664.278 125.997 668.316 122.632C672.42 119.201 678.679 117.485 687.09 117.485H711.719C712.998 117.485 713.906 117.787 714.444 118.393C715.05 118.931 715.353 119.84 715.353 121.118V133.332C715.353 134.61 715.05 135.553 714.444 136.158C713.906 136.697 712.998 136.966 711.719 136.966H691.431C689.344 136.966 687.797 137.403 686.787 138.278C685.778 139.085 685.273 140.33 685.273 142.013V166.036C685.273 167.718 685.778 168.963 686.787 169.771C687.797 170.511 689.344 170.881 691.431 170.881H711.719C712.998 170.881 713.906 171.184 714.444 171.789C715.05 172.328 715.353 173.236 715.353 174.515V186.526C715.353 187.805 715.05 188.747 714.444 189.353C713.906 189.891 712.998 190.16 711.719 190.16ZM781.258 190.16H764.906C763.628 190.16 762.686 189.891 762.08 189.353C761.542 188.747 761.273 187.805 761.273 186.526V136.966H746.435C745.156 136.966 744.214 136.697 743.609 136.158C743.07 135.553 742.801 134.61 742.801 133.332V121.118C742.801 119.84 743.07 118.931 743.609 118.393C744.214 117.787 745.156 117.485 746.435 117.485H799.73C801.009 117.485 801.917 117.787 802.456 118.393C803.061 118.931 803.364 119.84 803.364 121.118V133.332C803.364 134.61 803.061 135.553 802.456 136.158C801.917 136.697 801.009 136.966 799.73 136.966H784.892V186.526C784.892 187.805 784.589 188.747 783.984 189.353C783.445 189.891 782.537 190.16 781.258 190.16ZM835.387 190.16C834.108 190.16 833.166 189.891 832.56 189.353C832.022 188.747 831.753 187.805 831.753 186.526V174.515C831.753 173.236 832.022 172.328 832.56 171.789C833.166 171.184 834.108 170.881 835.387 170.881H845.38V136.966H835.387C834.108 136.966 833.166 136.697 832.56 136.158C832.022 135.553 831.753 134.61 831.753 133.332V121.118C831.753 119.84 832.022 118.931 832.56 118.393C833.166 117.787 834.108 117.485 835.387 117.485H878.386C879.665 117.485 880.573 117.787 881.112 118.393C881.717 118.931 882.02 119.84 882.02 121.118V133.332C882.02 134.61 881.717 135.553 881.112 136.158C880.573 136.697 879.665 136.966 878.386 136.966H868.595V170.881H878.386C879.665 170.881 880.573 171.184 881.112 171.789C881.717 172.328 882.02 173.236 882.02 174.515V186.526C882.02 187.805 881.717 188.747 881.112 189.353C880.573 189.891 879.665 190.16 878.386 190.16H835.387ZM957.67 190.16H931.426C930.148 190.16 929.071 189.925 928.196 189.454C927.389 188.983 926.749 188.108 926.278 186.829L916.386 162.099C915.781 160.619 915.276 159.34 914.872 158.264C914.469 157.12 914.132 156.043 913.863 155.034C913.594 154.024 913.392 152.981 913.257 151.905C913.19 150.761 913.156 149.381 913.156 147.766V121.118C913.156 119.84 913.426 118.931 913.964 118.393C914.57 117.787 915.512 117.485 916.79 117.485H932.839C934.118 117.485 935.094 117.787 935.767 118.393C936.44 118.931 936.776 119.84 936.776 121.118V148.977C936.776 149.65 936.843 150.323 936.978 150.996C937.112 151.669 937.314 152.376 937.583 153.116L942.328 167.247C942.529 167.92 942.765 168.391 943.034 168.66C943.303 168.862 943.707 168.963 944.245 168.963H945.356C945.894 168.963 946.298 168.862 946.567 168.66C946.836 168.391 947.072 167.92 947.274 167.247L952.018 153.015C952.287 152.275 952.489 151.568 952.623 150.895C952.758 150.222 952.825 149.549 952.825 148.876V121.118C952.825 119.84 953.094 118.931 953.633 118.393C954.238 117.787 955.18 117.485 956.459 117.485H972.306C973.585 117.485 974.493 117.787 975.032 118.393C975.637 118.931 975.94 119.84 975.94 121.118V147.766C975.94 149.381 975.873 150.761 975.738 151.905C975.671 152.981 975.503 154.024 975.233 155.034C974.964 156.043 974.628 157.12 974.224 158.264C973.82 159.34 973.316 160.619 972.71 162.099L962.818 186.829C962.347 188.108 961.674 188.983 960.799 189.454C959.992 189.925 958.949 190.16 957.67 190.16Z" fill="black"/>
<path d="M88.0864 123.726L25 160.176V217.11C25 226.122 29.8066 234.451 37.6103 238.959L88.0864 268.123V196.625V123.726Z" fill="#ABE9FE" stroke="black" stroke-width="18.9259"/>
<path d="M201.649 238.957C209.452 234.448 214.259 226.12 214.259 217.107V160.173L151.172 196.623L125.941 211.201C122.036 213.457 117.223 213.457 113.317 211.201L88.0859 196.623V268.121L107.005 279.052C114.816 283.565 124.442 283.565 132.253 279.052L181.502 250.597L201.649 238.957Z" fill="#FBA99D" stroke="black" stroke-width="18.9259"/>
<path d="M214.258 160.172V103.237C214.258 94.2248 209.452 85.8964 201.648 81.3876L151.172 52.2236V123.722V196.621L214.258 160.172Z" fill="#FEF284" stroke="black" stroke-width="18.9259"/>
<path d="M37.6103 81.389C29.8066 85.8977 25 94.2261 25 103.239V160.173L88.0864 123.723L113.317 109.145C117.223 106.888 122.036 106.888 125.942 109.145L151.173 123.723V52.225L132.254 41.294C124.443 36.7809 114.817 36.7809 107.005 41.294L57.7564 69.749L37.6103 81.389Z" fill="#C3E29E" stroke="black" stroke-width="18.9259"/>
</svg>
